<svg xmlns="http://www.w3.org/2000/svg" xmlns:xlink="http://www.w3.org/1999/xlink" width="375" viewBox="0 0 375 375" height="375" version="1.0"><defs><g id="a"><path d="M 17.34375 0 L 5.390625 0 C 4.960938 0 4.59375 -0.15625 4.28125 -0.46875 C 3.96875 -0.78125 3.8125 -1.148438 3.8125 -1.578125 L 3.8125 -39.421875 C 3.8125 -39.847656 3.96875 -40.21875 4.28125 -40.53125 C 4.59375 -40.84375 4.960938 -41 5.390625 -41 L 17.34375 -41 C 17.769531 -41 18.140625 -40.84375 18.453125 -40.53125 C 18.765625 -40.21875 18.921875 -39.847656 18.921875 -39.421875 L 18.921875 -1.578125 C 18.921875 -1.148438 18.765625 -0.78125 18.453125 -0.46875 C 18.140625 -0.15625 17.769531 0 17.34375 0 Z M 17.34375 0"/></g><g id="b"><path d="M 28.53125 -41 L 39.125 -41 C 39.5625 -41 39.9375 -40.84375 40.25 -40.53125 C 40.5625 -40.21875 40.71875 -39.847656 40.71875 -39.421875 L 40.71875 -1.578125 C 40.71875 -1.148438 40.5625 -0.78125 40.25 -0.46875 C 39.9375 -0.15625 39.5625 0 39.125 0 L 29.875 0 C 28.863281 0 28.0625 -0.445312 27.46875 -1.34375 L 17.578125 -16.28125 L 17.578125 -1.578125 C 17.578125 -1.148438 17.421875 -0.78125 17.109375 -0.46875 C 16.796875 -0.15625 16.421875 0 15.984375 0 L 5.390625 0 C 4.960938 0 4.59375 -0.15625 4.28125 -0.46875 C 3.96875 -0.78125 3.8125 -1.148438 3.8125 -1.578125 L 3.8125 -39.421875 C 3.8125 -39.847656 3.96875 -40.21875 4.28125 -40.53125 C 4.59375 -40.84375 4.960938 -41 5.390625 -41 L 14.640625 -41 C 15.734375 -41 16.535156 -40.550781 17.046875 -39.65625 L 26.953125 -23.4375 L 26.953125 -39.421875 C 26.953125 -39.847656 27.109375 -40.21875 27.421875 -40.53125 C 27.734375 -40.84375 28.101562 -41 28.53125 -41 Z M 28.53125 -41"/></g><g id="c"><path d="M 5.390625 -41 L 34.90625 -41 C 35.34375 -41 35.71875 -40.84375 36.03125 -40.53125 C 36.34375 -40.21875 36.5 -39.847656 36.5 -39.421875 L 36.5 -30.515625 C 36.5 -30.085938 36.34375 -29.71875 36.03125 -29.40625 C 35.71875 -29.09375 35.34375 -28.9375 34.90625 -28.9375 L 18.15625 -28.9375 L 18.15625 -24.609375 L 33.734375 -24.609375 C 34.171875 -24.609375 34.546875 -24.453125 34.859375 -24.140625 C 35.171875 -23.828125 35.328125 -23.453125 35.328125 -23.015625 L 35.328125 -14.171875 C 35.328125 -13.742188 35.171875 -13.375 34.859375 -13.0625 C 34.546875 -12.75 34.171875 -12.59375 33.734375 -12.59375 L 18.15625 -12.59375 L 18.15625 -1.578125 C 18.15625 -1.148438 18 -0.78125 17.6875 -0.46875 C 17.375 -0.15625 17.003906 0 16.578125 0 L 5.390625 0 C 4.960938 0 4.59375 -0.15625 4.28125 -0.46875 C 3.96875 -0.78125 3.8125 -1.148438 3.8125 -1.578125 L 3.8125 -39.421875 C 3.8125 -39.847656 3.96875 -40.21875 4.28125 -40.53125 C 4.59375 -40.84375 4.960938 -41 5.390625 -41 Z M 5.390625 -41"/></g><g id="d"><path d="M 41.53125 -1.9375 C 41.644531 -1.695312 41.703125 -1.441406 41.703125 -1.171875 C 41.703125 -0.898438 41.578125 -0.632812 41.328125 -0.375 C 41.078125 -0.125 40.773438 0 40.421875 0 L 28.40625 0 C 27.195312 0 26.359375 -0.523438 25.890625 -1.578125 L 20.859375 -12.765625 L 18.453125 -12.765625 L 18.453125 -1.578125 C 18.453125 -1.148438 18.296875 -0.78125 17.984375 -0.46875 C 17.671875 -0.15625 17.300781 0 16.875 0 L 5.390625 0 C 4.960938 0 4.59375 -0.15625 4.28125 -0.46875 C 3.96875 -0.78125 3.8125 -1.148438 3.8125 -1.578125 L 3.8125 -39.421875 C 3.8125 -39.847656 3.96875 -40.21875 4.28125 -40.53125 C 4.59375 -40.84375 4.960938 -41 5.390625 -41 L 22.734375 -41 C 28.347656 -41 32.738281 -39.738281 35.90625 -37.21875 C 39.070312 -34.707031 40.65625 -31.097656 40.65625 -26.390625 C 40.65625 -21.679688 38.546875 -17.976562 34.328125 -15.28125 Z M 18.453125 -30.109375 L 18.453125 -23.90625 L 22.734375 -23.90625 C 23.585938 -23.90625 24.25 -24.1875 24.71875 -24.75 C 25.1875 -25.3125 25.421875 -26.019531 25.421875 -26.875 C 25.421875 -27.738281 25.195312 -28.492188 24.75 -29.140625 C 24.300781 -29.785156 23.628906 -30.109375 22.734375 -30.109375 Z M 18.453125 -30.109375"/></g><g id="e"><path d="M 16.640625 -41 L 29.34375 -41 C 30.75 -41 31.628906 -40.359375 31.984375 -39.078125 L 45.046875 -1.703125 C 45.085938 -1.578125 45.109375 -1.390625 45.109375 -1.140625 C 45.109375 -0.890625 44.976562 -0.632812 44.71875 -0.375 C 44.46875 -0.125 44.164062 0 43.8125 0 L 32.984375 0 C 31.804688 0 31.039062 -0.488281 30.6875 -1.46875 L 29.28125 -5.328125 L 16.6875 -5.328125 L 15.28125 -1.46875 C 14.9375 -0.488281 14.175781 0 13 0 L 2.171875 0 C 1.816406 0 1.507812 -0.125 1.25 -0.375 C 1 -0.632812 0.875 -0.890625 0.875 -1.140625 C 0.875 -1.390625 0.894531 -1.578125 0.9375 -1.703125 L 14 -39.078125 C 14.351562 -40.359375 15.234375 -41 16.640625 -41 Z M 19.6875 -16.75 L 26.296875 -16.75 L 22.96875 -27.65625 Z M 19.6875 -16.75"/></g><g id="g"><path d="M 5.390625 -41 L 22.265625 -41 C 27.960938 -41 32.65625 -39.582031 36.34375 -36.75 C 40.039062 -33.925781 41.890625 -29.972656 41.890625 -24.890625 L 41.890625 -16.171875 C 41.890625 -10.859375 40.09375 -6.832031 36.5 -4.09375 C 32.90625 -1.363281 28.175781 0 22.3125 0 L 5.390625 0 C 4.960938 0 4.59375 -0.15625 4.28125 -0.46875 C 3.96875 -0.78125 3.8125 -1.148438 3.8125 -1.578125 L 3.8125 -39.421875 C 3.8125 -39.847656 3.96875 -40.21875 4.28125 -40.53125 C 4.59375 -40.84375 4.960938 -41 5.390625 -41 Z M 18.453125 -29.578125 L 18.453125 -11.421875 L 22.265625 -11.421875 C 23.585938 -11.421875 24.648438 -11.820312 25.453125 -12.625 C 26.253906 -13.425781 26.65625 -14.609375 26.65625 -16.171875 L 26.65625 -24.890625 C 26.65625 -28.015625 25.191406 -29.578125 22.265625 -29.578125 Z M 18.453125 -29.578125"/></g><g id="h"><path d="M 8 -37.25 C 11.570312 -40.144531 16.304688 -41.59375 22.203125 -41.59375 C 28.097656 -41.59375 32.832031 -40.132812 36.40625 -37.21875 C 39.976562 -34.3125 41.765625 -30.222656 41.765625 -24.953125 L 41.765625 -15.8125 C 41.765625 -10.46875 39.992188 -6.398438 36.453125 -3.609375 C 32.921875 -0.816406 28.164062 0.578125 22.1875 0.578125 C 16.21875 0.578125 11.46875 -0.816406 7.9375 -3.609375 C 4.40625 -6.398438 2.640625 -10.46875 2.640625 -15.8125 L 2.640625 -24.953125 C 2.640625 -30.265625 4.425781 -34.363281 8 -37.25 Z M 19.03125 -12.015625 C 19.8125 -11.234375 20.863281 -10.84375 22.1875 -10.84375 C 23.519531 -10.84375 24.578125 -11.234375 25.359375 -12.015625 C 26.140625 -12.796875 26.53125 -13.984375 26.53125 -15.578125 L 26.53125 -25.421875 C 26.53125 -26.984375 26.140625 -28.164062 25.359375 -28.96875 C 24.578125 -29.769531 23.519531 -30.171875 22.1875 -30.171875 C 20.863281 -30.171875 19.8125 -29.769531 19.03125 -28.96875 C 18.25 -28.164062 17.859375 -26.984375 17.859375 -25.421875 L 17.859375 -15.578125 C 17.859375 -13.984375 18.25 -12.796875 19.03125 -12.015625 Z M 19.03125 -12.015625"/></g><g id="i"><path d="M 3.34375 -41 L 37.671875 -41 C 38.097656 -41 38.46875 -40.84375 38.78125 -40.53125 C 39.09375 -40.21875 39.25 -39.847656 39.25 -39.421875 L 39.25 -29.984375 C 39.25 -29.554688 39.09375 -29.1875 38.78125 -28.875 C 38.46875 -28.5625 38.097656 -28.40625 37.671875 -28.40625 L 27.9375 -28.40625 L 27.9375 -1.578125 C 27.9375 -1.148438 27.78125 -0.78125 27.46875 -0.46875 C 27.15625 -0.15625 26.785156 0 26.359375 0 L 14.640625 0 C 14.210938 0 13.84375 -0.15625 13.53125 -0.46875 C 13.21875 -0.78125 13.0625 -1.148438 13.0625 -1.578125 L 13.0625 -28.40625 L 3.34375 -28.40625 C 2.90625 -28.40625 2.53125 -28.5625 2.21875 -28.875 C 1.90625 -29.1875 1.75 -29.554688 1.75 -29.984375 L 1.75 -39.421875 C 1.75 -39.847656 1.90625 -40.21875 2.21875 -40.53125 C 2.53125 -40.84375 2.90625 -41 3.34375 -41 Z M 3.34375 -41"/></g><g id="j"><path d="M 17.859375 -11.421875 L 35.90625 -11.421875 C 36.332031 -11.421875 36.703125 -11.265625 37.015625 -10.953125 C 37.328125 -10.640625 37.484375 -10.269531 37.484375 -9.84375 L 37.484375 -1.578125 C 37.484375 -1.148438 37.328125 -0.78125 37.015625 -0.46875 C 36.703125 -0.15625 36.332031 0 35.90625 0 L 5.390625 0 C 4.960938 0 4.59375 -0.15625 4.28125 -0.46875 C 3.96875 -0.78125 3.8125 -1.148438 3.8125 -1.578125 L 3.8125 -39.421875 C 3.8125 -39.847656 3.96875 -40.21875 4.28125 -40.53125 C 4.59375 -40.84375 4.960938 -41 5.390625 -41 L 35.4375 -41 C 35.863281 -41 36.234375 -40.84375 36.546875 -40.53125 C 36.859375 -40.21875 37.015625 -39.847656 37.015625 -39.421875 L 37.015625 -31.15625 C 37.015625 -30.726562 36.859375 -30.359375 36.546875 -30.046875 C 36.234375 -29.734375 35.863281 -29.578125 35.4375 -29.578125 L 17.859375 -29.578125 L 17.859375 -25.890625 L 34.15625 -25.890625 C 34.582031 -25.890625 34.953125 -25.734375 35.265625 -25.421875 C 35.578125 -25.109375 35.734375 -24.738281 35.734375 -24.3125 L 35.734375 -16.6875 C 35.734375 -16.257812 35.578125 -15.890625 35.265625 -15.578125 C 34.953125 -15.265625 34.582031 -15.109375 34.15625 -15.109375 L 17.859375 -15.109375 Z M 17.859375 -11.421875"/></g></defs><path fill="#FFF" d="M-37.5 -37.5H412.5V412.5H-37.5z"/><path fill="#FFF" d="M-37.5 -37.5H412.5V412.5H-37.5z"/><path fill="#651E7E" d="M-37.5 -37.5H412.5V412.5H-37.5z"/><path fill="#651E7E" d="M 228.316406 99.25 L 320.886719 99.25 L 320.886719 120.980469 L 228.316406 120.980469 Z M 228.316406 99.25"/><g fill="#FFF"><use x="38.816" y="174.399" xmlns:xlink="http://www.w3.org/1999/xlink" xlink:href="#a" xlink:type="simple" xlink:actuate="onLoad" xlink:show="embed"/></g><g fill="#FFF"><use x="62.127" y="174.399" xmlns:xlink="http://www.w3.org/1999/xlink" xlink:href="#b" xlink:type="simple" xlink:actuate="onLoad" xlink:show="embed"/></g><g fill="#FFF"><use x="107.225" y="174.399" xmlns:xlink="http://www.w3.org/1999/xlink" xlink:href="#c" xlink:type="simple" xlink:actuate="onLoad" xlink:show="embed"/></g><g fill="#FFF"><use x="146.642" y="174.399" xmlns:xlink="http://www.w3.org/1999/xlink" xlink:href="#d" xlink:type="simple" xlink:actuate="onLoad" xlink:show="embed"/></g><g fill="#FFF"><use x="190.686" y="174.399" xmlns:xlink="http://www.w3.org/1999/xlink" xlink:href="#e" xlink:type="simple" xlink:actuate="onLoad" xlink:show="embed"/></g><g fill="#FFF"><use x="237.246" y="174.399" xmlns:xlink="http://www.w3.org/1999/xlink" xlink:href="#f" xlink:type="simple" xlink:actuate="onLoad" xlink:show="embed"/></g><path stroke-linecap="round" transform="matrix(4.49935 .00991 -.00944 4.28783 25.48 182.125)" fill="none" d="M 3.49982 0.0000886246 L 70.177818 -0.0000503011" stroke="#FFF"/><path transform="matrix(4.49935 .00991 -.00944 4.28783 25.48 182.125)" fill="none" stroke-linejoin="round" d="M 0.500256 -0.000267157 L 1.99993 -1.499609 L 3.49982 0.0000886246 L 2.000149 1.500342 Z M 0.500256 -0.000267157" stroke="#FFF"/><path transform="matrix(4.49935 .00991 -.00944 4.28783 356.98 182.855)" fill="none" stroke-linejoin="round" d="M -0.500156 0.000303476 L -2.000049 -1.500305 L -3.499721 -0.0000523062 L -1.99983 1.499645 Z M -0.500156 0.000303476" stroke="#FFF"/><g fill="#5CE1E6"><use x="91.664" y="235.435" xmlns:xlink="http://www.w3.org/1999/xlink" xlink:href="#g" xlink:type="simple" xlink:actuate="onLoad" xlink:show="embed"/></g><g fill="#5CE1E6"><use x="136.763" y="235.435" xmlns:xlink="http://www.w3.org/1999/xlink" xlink:href="#h" xlink:type="simple" xlink:actuate="onLoad" xlink:show="embed"/></g><g fill="#5CE1E6"><use x="181.744" y="235.435" xmlns:xlink="http://www.w3.org/1999/xlink" xlink:href="#i" xlink:type="simple" xlink:actuate="onLoad" xlink:show="embed"/></g><g fill="#5CE1E6"><use x="223.328" y="235.435" xmlns:xlink="http://www.w3.org/1999/xlink" xlink:href="#b" xlink:type="simple" xlink:actuate="onLoad" xlink:show="embed"/></g><g fill="#5CE1E6"><use x="268.426" y="235.435" xmlns:xlink="http://www.w3.org/1999/xlink" xlink:href="#j" xlink:type="simple" xlink:actuate="onLoad" xlink:show="embed"/></g><g fill="#5CE1E6"><use x="309.717" y="235.435" xmlns:xlink="http://www.w3.org/1999/xlink" xlink:href="#i" xlink:type="simple" xlink:actuate="onLoad" xlink:show="embed"/></g></svg>